# xmcd
#
# Track frame offsets:
#	150
#	22685
#	41147
#	60410
#
# Disc length: 1062 seconds
#
# Revision: 0
# Processed by: cddbd v1.4PL0 Copyright (c) Steve Scherf et al.
# Submitted via: dBpowerAMP V4.0
#
DISCID=25042404
DTITLE=Orchid Leaves - Free at last
DYEAR=1900
DGENRE=blues
TTITLE0=Free at last
TTITLE1=For my own
TTITLE2=Prisoner of time
TTITLE3=Faded Glory
EXTD=
EXTT0=
EXTT1=
EXTT2=
EXTT3=
PLAYORDER=
